# xmcd CD database file
#
# Track frame offsets:
#	150
#	21537
#	47637
#
# Disc length: 919 seconds
#
# Revision: 0
# Processed by: cddbd v1.5.1PL2 Copyright (c) Steve Scherf et al.
# Submitted via: CDex 1.51
#
DISCID=21039503
DTITLE=EBI - Love the world
DYEAR=1900
DGENRE=J-POP
TTITLE0=Love the world
TTITLE1=BLUE
TTITLE2=Love the world（オリジナル・カラオケ）
EXTD=
EXTT0=
EXTT1=
EXTT2=
PLAYORDER=
